<?xml version="1.0" encoding="utf-8" ?><!DOCTYPE svg><svg xmlns="http://www.w3.org/2000/svg" xmlns:xlink="http://www.w3.org/1999/xlink" width="750px" height="528px" viewBox="0.00 0.00 121.82 174.00">
<g id="graph0" class="graph" transform="scale(1 1) rotate(0) translate(4 170)">
<title>system</title>
<polygon fill="#ffffff" stroke="transparent" points="-4,4 -4,-170 117.823,-170 117.823,4 -4,4"></polygon>
<!-- vador -->
<g id="node1" class="node">
<title>vador</title>
<polygon fill="none" stroke="#000000" points="8.8885,-.5 8.8885,-64.5 104.9345,-64.5 104.9345,-.5 8.8885,-.5"></polygon>
<text text-anchor="middle" x="56.9115" y="-51.5" font-family="Bitstream Vera Sans" font-size="10.00" fill="#000000">vador : Jedi</text>
<polyline fill="none" stroke="#000000" points="8.8885,-44.5 104.9345,-44.5 "></polyline>
<text text-anchor="start" x="16.8885" y="-31.5" font-family="Bitstream Vera Sans" font-size="10.00" fill="#000000">father = ''</text>
<text text-anchor="start" x="16.8885" y="-19.5" font-family="Bitstream Vera Sans" font-size="10.00" fill="#000000">firstName = 'Dark'</text>
<text text-anchor="start" x="16.8885" y="-7.5" font-family="Bitstream Vera Sans" font-size="10.00" fill="#000000">lastName = 'Vador'</text>
</g>
<!-- luke -->
<g id="node2" class="node">
<title>luke</title>
<polygon fill="none" stroke="#000000" points="0,-101.5 0,-165.5 113.823,-165.5 113.823,-101.5 0,-101.5"></polygon>
<text text-anchor="middle" x="56.9115" y="-152.5" font-family="Bitstream Vera Sans" font-size="10.00" fill="#000000">luke : Jedi</text>
<polyline fill="none" stroke="#000000" points="0,-145.5 113.823,-145.5 "></polyline>
<text text-anchor="start" x="8" y="-132.5" font-family="Bitstream Vera Sans" font-size="10.00" fill="#000000">father = 'vador'</text>
<text text-anchor="start" x="8" y="-120.5" font-family="Bitstream Vera Sans" font-size="10.00" fill="#000000">firstName = 'Luke'</text>
<text text-anchor="start" x="8" y="-108.5" font-family="Bitstream Vera Sans" font-size="10.00" fill="#000000">lastName = 'Skywalker'</text>
</g>
<!-- luke&#45;&gt;vador -->
<g id="edge1" class="edge">
<title>luke-&gt;vador</title>
<path fill="none" stroke="#000000" d="M56.9115,-101.2653C56.9115,-89.6036 56.9115,-76.44 56.9115,-64.7749"></path>
</g>
</g>
</svg>